<?xml version="1.0" standalone="no"?>
<!DOCTYPE svg PUBLIC "-//W3C//DTD SVG 20010904//EN"
 "http://www.w3.org/TR/2001/REC-SVG-20010904/DTD/svg10.dtd">
<svg version="1.0" xmlns="http://www.w3.org/2000/svg"
 width="885.000000pt" height="295.000000pt" viewBox="0 0 885.000000 295.000000"
 preserveAspectRatio="xMidYMid meet">

<g transform="translate(0.000000,295.000000) scale(0.100000,-0.100000)"
fill="#000000" stroke="none">
<path d="M7210 2275 l-535 -162 0 -528 0 -529 540 -163 c297 -90 543 -163 548
-163 4 0 7 385 7 855 0 678 -3 855 -12 854 -7 -1 -254 -74 -548 -164z m22
-530 l243 -284 3 284 2 285 105 0 105 0 0 -445 0 -445 -118 0 -119 0 -244 286
-244 287 -3 -287 -2 -286 -105 0 -105 0 0 445 0 445 120 0 119 0 243 -285z"/>
<path d="M1540 1585 l0 -445 105 0 105 0 0 170 0 170 113 0 112 0 91 -168 90
-167 112 -3 c62 -1 112 0 112 4 0 4 -38 80 -85 169 l-85 162 46 6 c52 5 89 29
122 77 21 31 22 43 22 195 0 152 -1 164 -22 195 -13 18 -36 43 -51 54 -28 20
-41 21 -408 24 l-379 3 0 -446z m650 170 l0 -65 -220 0 -220 0 0 65 0 65 220
0 220 0 0 -65z"/>
<path d="M2512 1643 c3 -380 3 -389 25 -423 12 -20 40 -46 61 -58 39 -21 48
-22 358 -22 359 0 380 4 422 72 22 35 22 43 22 427 l0 391 -100 0 -100 0 0
-340 0 -340 -240 0 -240 0 0 340 0 340 -106 0 -105 0 3 -387z"/>
<path d="M3604 2010 c-25 -13 -49 -35 -62 -59 -20 -35 -22 -53 -22 -205 0
-186 7 -212 63 -246 30 -19 52 -20 335 -20 l302 0 0 -65 0 -65 -244 0 -245 0
-3 38 -3 37 -102 3 -103 3 0 -87 c0 -102 21 -149 80 -183 36 -20 50 -21 375
-21 331 0 338 0 377 22 69 39 78 71 78 265 0 151 -2 171 -20 201 -36 59 -56
62 -385 62 l-295 0 0 65 0 65 244 0 245 0 3 -37 3 -38 103 -3 102 -3 0 89 c0
98 -15 133 -73 176 -27 20 -41 21 -370 24 -327 2 -344 1 -383 -18z"/>
<path d="M4550 1585 l0 -445 405 0 405 0 0 105 0 105 -305 0 -305 0 0 340 0
340 -100 0 -100 0 0 -445z"/>
<path d="M5731 1697 c-85 -182 -178 -383 -207 -444 l-53 -113 113 0 113 0 153
320 c84 176 156 318 160 315 3 -2 76 -146 161 -319 l154 -316 113 0 c63 0 112
4 110 9 -1 5 -97 205 -213 445 l-209 436 -121 0 -120 0 -154 -333z"/>
<path d="M3802 814 c-45 -31 -25 -71 58 -116 58 -33 20 -83 -45 -59 -42 15
-57 8 -29 -14 20 -15 71 -20 99 -9 9 4 21 18 26 32 13 33 -7 63 -59 86 -47 21
-56 37 -37 62 11 16 18 17 48 7 41 -12 55 -6 29 13 -23 18 -63 17 -90 -2z"/>
<path d="M3960 720 l0 -110 60 0 c33 0 60 4 60 10 0 6 -20 10 -45 10 l-45 0 0
100 c0 82 -3 100 -15 100 -12 0 -15 -19 -15 -110z"/>
<path d="M4148 814 c-56 -30 -58 -152 -3 -188 80 -53 164 27 136 131 -18 66
-73 90 -133 57z m87 -29 c48 -47 20 -155 -40 -155 -60 0 -88 108 -40 155 13
14 31 25 40 25 9 0 27 -11 40 -25z"/>
<path d="M4359 801 c-63 -63 -24 -191 58 -191 57 0 73 14 73 65 0 45 0 45 -35
45 -19 0 -35 -4 -35 -10 0 -5 11 -10 25 -10 21 0 25 -5 25 -30 0 -23 -5 -31
-26 -36 -38 -10 -70 10 -84 50 -24 74 25 140 88 118 36 -12 49 -4 24 14 -31
24 -81 17 -113 -15z"/>
<path d="M4585 818 c-2 -7 -20 -57 -40 -111 -29 -83 -32 -98 -18 -95 10 2 22
18 27 36 9 31 12 33 50 30 36 -3 41 -6 50 -35 5 -18 15 -33 24 -33 8 0 12 6
10 13 -3 6 -20 56 -37 110 -21 63 -38 97 -47 97 -8 0 -17 -6 -19 -12z m39 -85
c7 -32 6 -33 -23 -33 -17 0 -31 1 -31 3 0 2 7 25 17 52 17 52 22 49 37 -22z"/>
<path d="M4727 824 c-4 -4 -7 -54 -7 -111 0 -85 3 -103 15 -103 12 0 15 16 15
88 l0 87 51 -87 c69 -120 79 -117 79 23 0 84 -3 110 -12 106 -9 -3 -13 -30
-12 -91 l1 -87 -51 87 c-50 85 -65 102 -79 88z"/>
</g>
</svg>
